<?xml version="1.0" encoding="UTF-8"?>
<svg width="1200pt" height="1200pt" version="1.1" viewBox="0 0 1200 1200" xmlns="http://www.w3.org/2000/svg">
 <g>
  <path d="m1200 600c0 214.36-114.36 412.44-300 519.62-185.64 107.18-414.36 107.18-600 0-185.64-107.18-300-305.26-300-519.62s114.36-412.44 300-519.62c185.64-107.18 414.36-107.18 600 0 185.64 107.18 300 305.26 300 519.62" fill="#fff"/>
  <path d="m600 259.93c-187.82 0-340.07 152.25-340.07 340.07s152.25 340.07 340.07 340.07 340.07-152.25 340.07-340.07c0.003907-187.82-152.25-340.07-340.07-340.07zm233.84 423.43c0 1.8438-0.48438 3.5586-1.2617 5.0938 0.55078 4.1328 0.94531 8.3125 0.94531 12.59 0 51.246-41.035 92.992-91.934 94.297-3.3086 10.18-12.777 17.609-24.055 17.609-14.004 0-25.398-11.395-25.398-25.398l-0.003906-172.96c0-14.004 11.395-25.398 25.398-25.398 11.273 0 20.75 7.4375 24.055 17.625 27.863 0.71875 52.75 13.512 69.578 33.395v-56.355c0-116.69-94.73-211.62-211.17-211.62s-211.17 94.938-211.17 211.63v56c16.82-19.68 41.562-32.328 69.254-33.047 3.3086-10.188 12.777-17.625 24.055-17.625 14.012 0 25.398 11.395 25.398 25.398v172.97c0 14.004-11.395 25.398-25.398 25.398-11.27 0-20.738-7.4297-24.047-17.609-50.898-1.3086-91.934-43.055-91.934-94.297 0-4.4453 0.41406-8.7734 1.0117-13.051-0.63672-1.4219-1.0117-2.9766-1.0117-4.6328v-99.504c0-129.19 104.9-234.29 233.84-234.29 128.94 0 233.84 105.11 233.84 234.29z"/>
  <path d="m456.74 772.61v-143.06c-37.77 1.9805-67.91 33.242-67.91 71.5 0 38.285 30.145 69.57 67.91 71.559z"/>
  <path d="m742.94 629.56v143.06c37.77-1.9883 67.91-33.273 67.91-71.559 0-38.258-30.141-69.512-67.91-71.5z"/>
 </g>
</svg>
